# xmcd CD database file
#
# Track frame offsets:
#	150
#	26892
#	60494
#	81497
#	116722
#	152258
#	181531
#	197584
#	225264
#
# Disc length: 3373 seconds
#
# Revision: 0
# Processed by: cddbd v1.5.1PL0 Copyright (c) Steve Scherf et al.
# Submitted via: CDex 1.51
#
DISCID=620d2b09
DTITLE=Sanctifica - Negative B
DYEAR=1900
DGENRE=Christistian Metal
TTITLE0=Labels
TTITLE1=Stardust inc.
TTITLE2=Epitaph
TTITLE3=Lavender
TTITLE4=Red Alert
TTITLE5=Nerve
TTITLE6=Juxtapose - I. As A Reminder
TTITLE7=Juxtapose - II. Confront
TTITLE8=Juxtapose - III. Summer Sits Here Raining
EXTD=
EXTT0=
EXTT1=
EXTT2=
EXTT3=
EXTT4=
EXTT5=
EXTT6=
EXTT7=
EXTT8=
PLAYORDER=
